<svg aria-hidden="true" style="position:absolute;width:0;height:0;overflow:hidden" xmlns="http://www.w3.org/2000/svg"><defs><symbol id="icon-tencentqq" viewBox="0 0 32 32"><path d="M28.527 20.047a47.547 47.547 0 0 0-1.196-3.375l.125.356-1.439-3.593c.001-.043.019-.749.019-1.115C26.035 6.176 23.135 0 16 0S5.965 6.176 5.965 12.321c0 .365.017 1.072.019 1.115l-1.44 3.593c-.269.635-.632 1.636-.965 2.651l-.104.367c-1.361 4.377-.92 6.191-.584 6.231.72.087 2.804-3.296 2.804-3.296 0 1.959 1.008 4.516 3.192 6.361-.816.251-1.817.639-2.46 1.113-.579.427-.505.861-.401 1.037.457.771 7.844.492 9.976.252 2.133.24 9.52.519 9.977-.252.104-.176.176-.611-.401-1.037-.644-.475-1.644-.861-2.461-1.115 2.183-1.845 3.191-4.403 3.191-6.361 0 0 2.084 3.383 2.804 3.296.335-.04.775-1.853-.584-6.231zM16.883 6.461c.052-1.403.879-2.504 1.847-2.461s1.708 1.216 1.656 2.619c-.052 1.401-.879 2.504-1.847 2.461s-1.709-1.216-1.656-2.619zM13.272 4c.967-.044 1.793 1.059 1.845 2.461.053 1.403-.689 2.575-1.656 2.617-.968.044-1.795-1.059-1.847-2.46-.052-1.403.689-2.575 1.657-2.619zm-3.377 7.059c.259-.573 2.863-1.211 6.088-1.211h.035c3.224 0 5.829.639 6.088 1.211a.182.182 0 0 1 .019.081.195.195 0 0 1-.035.111c-.217.317-3.111 1.888-6.071 1.888h-.035c-2.961 0-5.853-1.571-6.071-1.888a.177.177 0 0 1-.018-.193v.001zm13.896 11.496c-.293 4.901-3.204 7.983-7.699 8.028h-.183c-4.493-.044-7.405-3.127-7.697-8.028-.108-1.8.001-3.328.196-4.573.424.084.851.163 1.277.235v4.675s2.211.445 4.424.137v-4.3c.651.036 1.28.053 1.875.045h.033c2.237.028 4.952-.272 7.577-.792.195 1.245.303 2.773.196 4.573zM13.973 7.739c.417-.055.723-.545.677-1.1-.044-.553-.419-.96-.839-.905-.417.053-.721.545-.677 1.099.045.556.42.96.839.907zm5.332-.864c.104.049.295.056.385-.195.047-.127.033-.22-.012-.285-.031-.044-.177-.157-.495-.235-1.205-.293-1.788.512-1.873.665-.053.096-.016.235.075.303.089.068.185.049.239-.008.773-.837 1.613-.277 1.681-.245z"/></symbol></defs></svg>